solid Part1
   facet normal -0.000000e+00 0.000000e+00 1.000000e+00
      outer loop
         vertex 7.500000e+01 1.000000e+02 5.000000e+01
         vertex 1.125000e+02 7.000000e+01 5.000000e+01
         vertex 1.500000e+02 1.000000e+02 5.000000e+01
      endloop
   endfacet
   facet normal 0.000000e+00 0.000000e+00 1.000000e+00
      outer loop
         vertex 1.500000e+02 1.000000e+02 5.000000e+01
         vertex 1.125000e+02 7.000000e+01 5.000000e+01
         vertex 1.325000e+02 5.000000e+01 5.000000e+01
      endloop
   endfacet
   facet normal 0.000000e+00 0.000000e+00 1.000000e+00
      outer loop
         vertex 1.500000e+02 1.000000e+02 5.000000e+01
         vertex 1.325000e+02 5.000000e+01 5.000000e+01
         vertex 1.500000e+02 0.000000e+00 5.000000e+01
      endloop
   endfacet
   facet normal 0.000000e+00 0.000000e+00 1.000000e+00
      outer loop
         vertex 1.500000e+02 0.000000e+00 5.000000e+01
         vertex 1.325000e+02 5.000000e+01 5.000000e+01
         vertex 1.125000e+02 3.000000e+01 5.000000e+01
      endloop
   endfacet
   facet normal 0.000000e+00 0.000000e+00 1.000000e+00
      outer loop
         vertex 1.500000e+02 0.000000e+00 5.000000e+01
         vertex 1.125000e+02 3.000000e+01 5.000000e+01
         vertex 7.500000e+01 0.000000e+00 5.000000e+01
      endloop
   endfacet
   facet normal 0.000000e+00 0.000000e+00 1.000000e+00
      outer loop
         vertex 7.500000e+01 0.000000e+00 5.000000e+01
         vertex 1.125000e+02 3.000000e+01 5.000000e+01
         vertex 9.250000e+01 5.000000e+01 5.000000e+01
      endloop
   endfacet
   facet normal 0.000000e+00 0.000000e+00 1.000000e+00
      outer loop
         vertex 7.500000e+01 0.000000e+00 5.000000e+01
         vertex 9.250000e+01 5.000000e+01 5.000000e+01
         vertex 7.500000e+01 1.000000e+02 5.000000e+01
      endloop
   endfacet
   facet normal 0.000000e+00 0.000000e+00 1.000000e+00
      outer loop
         vertex 7.500000e+01 1.000000e+02 5.000000e+01
         vertex 9.250000e+01 5.000000e+01 5.000000e+01
         vertex 1.125000e+02 7.000000e+01 5.000000e+01
      endloop
   endfacet
   facet normal 0.000000e+00 0.000000e+00 -1.000000e+00
      outer loop
         vertex 9.250000e+01 5.000000e+01 0.000000e+00
         vertex 0.000000e+00 1.000000e+02 0.000000e+00
         vertex 1.125000e+02 7.000000e+01 0.000000e+00
      endloop
   endfacet
   facet normal 0.000000e+00 0.000000e+00 -1.000000e+00
      outer loop
         vertex 1.125000e+02 7.000000e+01 0.000000e+00
         vertex 0.000000e+00 1.000000e+02 0.000000e+00
         vertex 1.500000e+02 1.000000e+02 0.000000e+00
      endloop
   endfacet
   facet normal 0.000000e+00 0.000000e+00 -1.000000e+00
      outer loop
         vertex 1.125000e+02 7.000000e+01 0.000000e+00
         vertex 1.500000e+02 1.000000e+02 0.000000e+00
         vertex 1.325000e+02 5.000000e+01 0.000000e+00
      endloop
   endfacet
   facet normal 0.000000e+00 0.000000e+00 -1.000000e+00
      outer loop
         vertex 1.325000e+02 5.000000e+01 0.000000e+00
         vertex 1.500000e+02 1.000000e+02 0.000000e+00
         vertex 1.500000e+02 0.000000e+00 0.000000e+00
      endloop
   endfacet
   facet normal 0.000000e+00 -0.000000e+00 -1.000000e+00
      outer loop
         vertex 1.325000e+02 5.000000e+01 0.000000e+00
         vertex 1.500000e+02 0.000000e+00 0.000000e+00
         vertex 1.125000e+02 3.000000e+01 0.000000e+00
      endloop
   endfacet
   facet normal 0.000000e+00 -0.000000e+00 -1.000000e+00
      outer loop
         vertex 1.125000e+02 3.000000e+01 0.000000e+00
         vertex 1.500000e+02 0.000000e+00 0.000000e+00
         vertex 0.000000e+00 0.000000e+00 0.000000e+00
      endloop
   endfacet
   facet normal -0.000000e+00 0.000000e+00 -1.000000e+00
      outer loop
         vertex 1.125000e+02 3.000000e+01 0.000000e+00
         vertex 0.000000e+00 0.000000e+00 0.000000e+00
         vertex 9.250000e+01 5.000000e+01 0.000000e+00
      endloop
   endfacet
   facet normal -0.000000e+00 0.000000e+00 -1.000000e+00
      outer loop
         vertex 9.250000e+01 5.000000e+01 0.000000e+00
         vertex 0.000000e+00 0.000000e+00 0.000000e+00
         vertex 0.000000e+00 1.000000e+02 0.000000e+00
      endloop
   endfacet
   facet normal -1.000000e+00 0.000000e+00 0.000000e+00
      outer loop
         vertex 0.000000e+00 0.000000e+00 8.000000e+01
         vertex 0.000000e+00 1.000000e+02 8.000000e+01
         vertex 0.000000e+00 0.000000e+00 0.000000e+00
      endloop
   endfacet
   facet normal -1.000000e+00 0.000000e+00 0.000000e+00
      outer loop
         vertex 0.000000e+00 0.000000e+00 0.000000e+00
         vertex 0.000000e+00 1.000000e+02 8.000000e+01
         vertex 0.000000e+00 1.000000e+02 0.000000e+00
      endloop
   endfacet
   facet normal -0.000000e+00 -1.000000e+00 -0.000000e+00
      outer loop
         vertex 7.500000e+01 0.000000e+00 8.000000e+01
         vertex 0.000000e+00 0.000000e+00 8.000000e+01
         vertex 7.500000e+01 0.000000e+00 5.000000e+01
      endloop
   endfacet
   facet normal -0.000000e+00 -1.000000e+00 0.000000e+00
      outer loop
         vertex 7.500000e+01 0.000000e+00 5.000000e+01
         vertex 0.000000e+00 0.000000e+00 8.000000e+01
         vertex 0.000000e+00 0.000000e+00 0.000000e+00
      endloop
   endfacet
   facet normal 0.000000e+00 -1.000000e+00 -0.000000e+00
      outer loop
         vertex 7.500000e+01 0.000000e+00 5.000000e+01
         vertex 0.000000e+00 0.000000e+00 0.000000e+00
         vertex 1.500000e+02 0.000000e+00 5.000000e+01
      endloop
   endfacet
   facet normal 0.000000e+00 -1.000000e+00 -0.000000e+00
      outer loop
         vertex 1.500000e+02 0.000000e+00 5.000000e+01
         vertex 0.000000e+00 0.000000e+00 0.000000e+00
         vertex 1.500000e+02 0.000000e+00 0.000000e+00
      endloop
   endfacet
   facet normal 1.000000e+00 0.000000e+00 0.000000e+00
      outer loop
         vertex 1.500000e+02 1.000000e+02 5.000000e+01
         vertex 1.500000e+02 0.000000e+00 5.000000e+01
         vertex 1.500000e+02 1.000000e+02 0.000000e+00
      endloop
   endfacet
   facet normal 1.000000e+00 0.000000e+00 0.000000e+00
      outer loop
         vertex 1.500000e+02 1.000000e+02 0.000000e+00
         vertex 1.500000e+02 0.000000e+00 5.000000e+01
         vertex 1.500000e+02 0.000000e+00 0.000000e+00
      endloop
   endfacet
   facet normal 0.000000e+00 1.000000e+00 0.000000e+00
      outer loop
         vertex 1.500000e+02 1.000000e+02 5.000000e+01
         vertex 1.500000e+02 1.000000e+02 0.000000e+00
         vertex 7.500000e+01 1.000000e+02 5.000000e+01
      endloop
   endfacet
   facet normal 0.000000e+00 1.000000e+00 0.000000e+00
      outer loop
         vertex 7.500000e+01 1.000000e+02 5.000000e+01
         vertex 1.500000e+02 1.000000e+02 0.000000e+00
         vertex 0.000000e+00 1.000000e+02 0.000000e+00
      endloop
   endfacet
   facet normal 0.000000e+00 1.000000e+00 -0.000000e+00
      outer loop
         vertex 7.500000e+01 1.000000e+02 5.000000e+01
         vertex 0.000000e+00 1.000000e+02 0.000000e+00
         vertex 7.500000e+01 1.000000e+02 8.000000e+01
      endloop
   endfacet
   facet normal 0.000000e+00 1.000000e+00 0.000000e+00
      outer loop
         vertex 7.500000e+01 1.000000e+02 8.000000e+01
         vertex 0.000000e+00 1.000000e+02 0.000000e+00
         vertex 0.000000e+00 1.000000e+02 8.000000e+01
      endloop
   endfacet
   facet normal -7.071068e-01 -7.071067e-01 -0.000000e+00
      outer loop
         vertex 1.325000e+02 5.000000e+01 5.000000e+01
         vertex 1.125000e+02 7.000000e+01 5.000000e+01
         vertex 1.325000e+02 5.000000e+01 -2.775558e-14
      endloop
   endfacet
   facet normal -7.071068e-01 -7.071067e-01 0.000000e+00
      outer loop
         vertex 1.325000e+02 5.000000e+01 -2.775558e-14
         vertex 1.125000e+02 7.000000e+01 5.000000e+01
         vertex 1.125000e+02 7.000000e+01 -2.775558e-14
      endloop
   endfacet
   facet normal 7.071068e-01 -7.071067e-01 0.000000e+00
      outer loop
         vertex 1.125000e+02 7.000000e+01 5.000000e+01
         vertex 9.250000e+01 5.000000e+01 5.000000e+01
         vertex 1.125000e+02 7.000000e+01 -2.775558e-14
      endloop
   endfacet
   facet normal 7.071068e-01 -7.071067e-01 0.000000e+00
      outer loop
         vertex 1.125000e+02 7.000000e+01 -2.775558e-14
         vertex 9.250000e+01 5.000000e+01 5.000000e+01
         vertex 9.250000e+01 5.000000e+01 -2.775558e-14
      endloop
   endfacet
   facet normal 7.071069e-01 7.071067e-01 0.000000e+00
      outer loop
         vertex 9.250000e+01 5.000000e+01 5.000000e+01
         vertex 1.125000e+02 3.000000e+01 5.000000e+01
         vertex 9.250000e+01 5.000000e+01 -2.775558e-14
      endloop
   endfacet
   facet normal 7.071069e-01 7.071067e-01 0.000000e+00
      outer loop
         vertex 9.250000e+01 5.000000e+01 -2.775558e-14
         vertex 1.125000e+02 3.000000e+01 5.000000e+01
         vertex 1.125000e+02 3.000000e+01 -2.775558e-14
      endloop
   endfacet
   facet normal -7.071069e-01 7.071067e-01 0.000000e+00
      outer loop
         vertex 1.125000e+02 3.000000e+01 5.000000e+01
         vertex 1.325000e+02 5.000000e+01 5.000000e+01
         vertex 1.125000e+02 3.000000e+01 -2.775558e-14
      endloop
   endfacet
   facet normal -7.071069e-01 7.071067e-01 0.000000e+00
      outer loop
         vertex 1.125000e+02 3.000000e+01 -2.775558e-14
         vertex 1.325000e+02 5.000000e+01 5.000000e+01
         vertex 1.325000e+02 5.000000e+01 -2.775558e-14
      endloop
   endfacet
   facet normal 1.000000e+00 0.000000e+00 0.000000e+00
      outer loop
         vertex 7.500000e+01 1.000000e+02 8.000000e+01
         vertex 7.500000e+01 0.000000e+00 8.000000e+01
         vertex 7.500000e+01 1.000000e+02 5.000000e+01
      endloop
   endfacet
   facet normal 1.000000e+00 0.000000e+00 0.000000e+00
      outer loop
         vertex 7.500000e+01 1.000000e+02 5.000000e+01
         vertex 7.500000e+01 0.000000e+00 8.000000e+01
         vertex 7.500000e+01 0.000000e+00 5.000000e+01
      endloop
   endfacet
   facet normal 0.000000e+00 0.000000e+00 1.000000e+00
      outer loop
         vertex 3.500000e+01 7.000000e+01 8.000000e+01
         vertex 0.000000e+00 1.000000e+02 8.000000e+01
         vertex 1.500000e+01 5.000000e+01 8.000000e+01
      endloop
   endfacet
   facet normal 0.000000e+00 0.000000e+00 1.000000e+00
      outer loop
         vertex 1.500000e+01 5.000000e+01 8.000000e+01
         vertex 0.000000e+00 1.000000e+02 8.000000e+01
         vertex 0.000000e+00 0.000000e+00 8.000000e+01
      endloop
   endfacet
   facet normal 0.000000e+00 0.000000e+00 1.000000e+00
      outer loop
         vertex 1.500000e+01 5.000000e+01 8.000000e+01
         vertex 0.000000e+00 0.000000e+00 8.000000e+01
         vertex 3.500000e+01 3.000000e+01 8.000000e+01
      endloop
   endfacet
   facet normal 0.000000e+00 0.000000e+00 1.000000e+00
      outer loop
         vertex 3.500000e+01 3.000000e+01 8.000000e+01
         vertex 0.000000e+00 0.000000e+00 8.000000e+01
         vertex 7.500000e+01 0.000000e+00 8.000000e+01
      endloop
   endfacet
   facet normal -0.000000e+00 0.000000e+00 1.000000e+00
      outer loop
         vertex 3.500000e+01 3.000000e+01 8.000000e+01
         vertex 7.500000e+01 0.000000e+00 8.000000e+01
         vertex 5.500000e+01 5.000000e+01 8.000000e+01
      endloop
   endfacet
   facet normal -0.000000e+00 0.000000e+00 1.000000e+00
      outer loop
         vertex 5.500000e+01 5.000000e+01 8.000000e+01
         vertex 7.500000e+01 0.000000e+00 8.000000e+01
         vertex 7.500000e+01 1.000000e+02 8.000000e+01
      endloop
   endfacet
   facet normal 0.000000e+00 -0.000000e+00 1.000000e+00
      outer loop
         vertex 5.500000e+01 5.000000e+01 8.000000e+01
         vertex 7.500000e+01 1.000000e+02 8.000000e+01
         vertex 3.500000e+01 7.000000e+01 8.000000e+01
      endloop
   endfacet
   facet normal 0.000000e+00 -0.000000e+00 1.000000e+00
      outer loop
         vertex 3.500000e+01 7.000000e+01 8.000000e+01
         vertex 7.500000e+01 1.000000e+02 8.000000e+01
         vertex 0.000000e+00 1.000000e+02 8.000000e+01
      endloop
   endfacet
   facet normal 7.071068e-01 7.071068e-01 0.000000e+00
      outer loop
         vertex 3.500000e+01 7.000000e+01 1.100000e+02
         vertex 5.500000e+01 5.000000e+01 1.100000e+02
         vertex 3.500000e+01 7.000000e+01 8.000000e+01
      endloop
   endfacet
   facet normal 7.071068e-01 7.071068e-01 0.000000e+00
      outer loop
         vertex 3.500000e+01 7.000000e+01 8.000000e+01
         vertex 5.500000e+01 5.000000e+01 1.100000e+02
         vertex 5.500000e+01 5.000000e+01 8.000000e+01
      endloop
   endfacet
   facet normal -7.071068e-01 7.071068e-01 0.000000e+00
      outer loop
         vertex 1.500000e+01 5.000000e+01 1.100000e+02
         vertex 3.500000e+01 7.000000e+01 1.100000e+02
         vertex 1.500000e+01 5.000000e+01 8.000000e+01
      endloop
   endfacet
   facet normal -7.071068e-01 7.071068e-01 0.000000e+00
      outer loop
         vertex 1.500000e+01 5.000000e+01 8.000000e+01
         vertex 3.500000e+01 7.000000e+01 1.100000e+02
         vertex 3.500000e+01 7.000000e+01 8.000000e+01
      endloop
   endfacet
   facet normal -7.071068e-01 -7.071068e-01 -0.000000e+00
      outer loop
         vertex 3.500000e+01 3.000000e+01 1.100000e+02
         vertex 1.500000e+01 5.000000e+01 1.100000e+02
         vertex 3.500000e+01 3.000000e+01 8.000000e+01
      endloop
   endfacet
   facet normal -7.071068e-01 -7.071068e-01 0.000000e+00
      outer loop
         vertex 3.500000e+01 3.000000e+01 8.000000e+01
         vertex 1.500000e+01 5.000000e+01 1.100000e+02
         vertex 1.500000e+01 5.000000e+01 8.000000e+01
      endloop
   endfacet
   facet normal 7.071068e-01 -7.071067e-01 0.000000e+00
      outer loop
         vertex 5.500000e+01 5.000000e+01 1.100000e+02
         vertex 3.500000e+01 3.000000e+01 1.100000e+02
         vertex 5.500000e+01 5.000000e+01 8.000000e+01
      endloop
   endfacet
   facet normal 7.071068e-01 -7.071067e-01 0.000000e+00
      outer loop
         vertex 5.500000e+01 5.000000e+01 8.000000e+01
         vertex 3.500000e+01 3.000000e+01 1.100000e+02
         vertex 3.500000e+01 3.000000e+01 8.000000e+01
      endloop
   endfacet
   facet normal -0.000000e+00 0.000000e+00 1.000000e+00
      outer loop
         vertex 1.500000e+01 5.000000e+01 1.100000e+02
         vertex 3.500000e+01 3.000000e+01 1.100000e+02
         vertex 3.500000e+01 7.000000e+01 1.100000e+02
      endloop
   endfacet
   facet normal 0.000000e+00 0.000000e+00 1.000000e+00
      outer loop
         vertex 3.500000e+01 7.000000e+01 1.100000e+02
         vertex 3.500000e+01 3.000000e+01 1.100000e+02
         vertex 5.500000e+01 5.000000e+01 1.100000e+02
      endloop
   endfacet
endsolid